<svg width="294" height="80" viewBox="0 0 294 80" fill="none" xmlns="http://www.w3.org/2000/svg">
<path fill-rule="evenodd" clip-rule="evenodd" d="M39.1134 10.7863C36.6494 8.30588 36.6494 4.29902 39.1134 1.84244C41.5775 -0.614146 45.5965 -0.614146 48.0844 1.84244C50.5484 4.29902 50.5484 8.30588 48.0844 10.7863C45.5965 13.2429 41.5775 13.2429 39.1134 10.7863ZM39.2809 60.4189C39.2809 71.2231 30.4535 80 19.6404 80C8.80351 80 0 71.2231 0 60.4189C0 54.7902 2.36833 49.5193 6.55479 45.7986C7.99014 44.5107 9.85611 43.0081 11.8895 41.434C12.2962 41.1001 12.5354 40.6231 12.5354 40.0745C12.5354 39.4067 12.1766 38.8343 11.6264 38.5243C6.19595 35.6861 2.46402 29.5088 2.46402 22.9738C2.46402 13.6245 10.0953 6.54096 19.473 6.54096C28.6832 6.54096 36.1949 13.863 36.458 22.9738C36.5298 23.7371 36.7929 29.9381 31.841 35.1375C29.9032 37.1648 25.7168 40.3607 21.2672 43.7236C18.0376 46.1802 14.7124 48.7084 12.3919 50.6879C12.2962 50.8072 11.5307 51.4512 11.5068 51.475C8.97097 53.7646 7.53562 56.9844 7.53562 60.4189C7.53562 67.0731 12.966 72.4872 19.6404 72.4872C26.3149 72.4872 31.7453 67.0731 31.7453 60.4189C31.7453 57.9861 31.0276 55.6488 29.664 53.6692C28.5157 51.952 28.9463 49.6147 30.6688 48.446C32.3912 47.2773 34.7356 47.7305 35.9078 49.4477C38.1087 52.6914 39.2809 56.4836 39.2809 60.4189ZM19.473 32.9194C24.6881 32.9194 28.9224 28.6979 28.9224 23.4747C28.9224 18.2753 24.6881 14.0538 19.473 14.0538C14.2339 14.0538 9.99964 18.2753 9.99964 23.4747C9.99964 28.6979 14.2339 32.9194 19.473 32.9194ZM99.7811 59.0833C99.7811 59.2264 99.7094 59.3695 99.5897 59.4649C94.9009 62.9947 89.4705 64.8073 84.064 64.8073C73.0596 64.8073 62.8207 57.2945 62.8207 43.509C62.8207 29.7235 73.1314 22.3299 83.9922 22.3299C89.7815 22.3299 95.4511 24.4526 99.6137 28.9603C99.7811 29.1511 99.7811 29.4373 99.6137 29.6042L95.8578 33.7542C95.6425 33.9689 95.3076 33.945 95.1162 33.7303C92.0541 30.1051 87.7241 28.6264 83.6812 28.6264C76.337 28.6264 69.6147 33.4203 69.6147 43.2705C69.6147 53.5261 76.8872 58.5824 84.4228 58.5824C87.2457 58.5824 90.2839 57.8907 92.8914 56.3882C93.035 56.2928 93.1306 56.1497 93.1306 55.9589V48.5414C93.1306 48.2791 92.9153 48.0644 92.6522 48.0644H84.2314C83.9683 48.0644 83.753 47.8498 83.753 47.5874V42.388C83.753 42.1257 83.9683 41.911 84.2314 41.911H99.3027C99.5897 41.911 99.7811 42.1257 99.7811 42.388V59.0833ZM134.421 49.2331C134.421 57.9146 128.01 64.4973 119.111 64.4973C110.235 64.4973 103.8 57.9146 103.8 49.2331C103.8 40.5515 110.235 33.9689 119.111 33.9689C128.01 33.9689 134.421 40.5515 134.421 49.2331ZM110.164 49.1615C110.164 54.5755 113.872 58.5109 119.111 58.5109C124.35 58.5109 128.058 54.5755 128.058 49.1615C128.058 43.819 124.35 39.8837 119.111 39.8837C113.872 39.8837 110.164 43.819 110.164 49.1615ZM168.295 49.2331C168.295 57.9146 161.884 64.4973 152.985 64.4973C144.11 64.4973 137.698 57.9146 137.698 49.2331C137.698 40.5515 144.11 33.9689 152.985 33.9689C161.884 33.9689 168.295 40.5515 168.295 49.2331ZM144.038 49.1615C144.038 54.5755 147.746 58.5109 152.985 58.5109C158.248 58.5109 161.932 54.5755 161.932 49.1615C161.932 43.819 158.248 39.8837 152.985 39.8837C147.746 39.8837 144.038 43.819 144.038 49.1615ZM201.093 63.8772H195.759C195.495 63.8772 195.28 63.6625 195.28 63.4002V61.2775C195.28 60.872 194.778 60.6574 194.467 60.9436C191.811 63.424 188.558 64.4973 185.209 64.4973C177.984 64.4973 171.262 58.9402 171.262 49.1615C171.262 39.1921 178.726 33.9689 185.902 33.9689C188.988 33.9689 192.218 34.9706 194.347 36.974C194.658 37.2602 195.161 37.0455 195.161 36.6162V23.8563C195.161 23.594 195.352 23.3793 195.639 23.3793H201.093C201.356 23.3793 201.572 23.594 201.572 23.8563V63.4002C201.572 63.6625 201.356 63.8772 201.093 63.8772V63.8772ZM195.161 49.1615C195.161 42.8889 190.711 39.6929 186.333 39.6929C181.812 39.6929 177.625 42.8412 177.625 49.2331C177.625 55.5057 181.692 58.654 186.261 58.654C190.639 58.654 195.161 55.5057 195.161 49.1615V49.1615ZM233.365 52.119H213.366C213.031 52.119 212.815 52.429 212.887 52.7391C214.059 56.8413 217.6 58.5109 221.188 58.5109C224.226 58.5109 227.121 57.366 229.131 54.8379C229.322 54.5994 229.657 54.5755 229.848 54.7663L233.269 58.0815C233.461 58.2724 233.484 58.5586 233.317 58.7494C230.064 62.5654 225.734 64.4973 221.021 64.4973C213.413 64.4973 205.758 59.131 205.758 49.1138C205.758 39.1921 213.102 33.9689 220.71 33.9689C227.863 33.9689 234.035 38.6435 234.035 48.4937C234.035 49.3762 234.035 50.4256 233.843 51.7135C233.819 51.952 233.604 52.119 233.365 52.119V52.119ZM213.102 46.8242H227.121C227.384 46.8242 227.6 46.6095 227.6 46.3233C227.241 41.8633 223.963 39.6929 220.399 39.6929C216.787 39.6929 213.39 41.911 212.648 46.2518C212.576 46.5618 212.815 46.8242 213.102 46.8242V46.8242ZM256.594 35.4237L255.374 40.9331C255.326 41.2194 255.015 41.3863 254.752 41.2909C253.675 40.9093 252.575 40.7423 251.57 40.7423C248.293 40.7423 245.565 42.6981 245.565 47.7543V63.4002C245.565 63.6625 245.35 63.8772 245.087 63.8772H239.633C239.369 63.8772 239.154 63.6625 239.154 63.4002V35.1852C239.154 34.9229 239.369 34.7082 239.633 34.7082H244.967C245.23 34.7082 245.446 34.9229 245.446 35.1852V36.7355C245.446 37.1886 245.996 37.4033 246.283 37.0694C247.934 35.1137 250.47 34.3266 252.862 34.3266C254.058 34.3266 255.254 34.5413 256.283 34.8752C256.522 34.9467 256.642 35.1852 256.594 35.4237V35.4237ZM288.841 64.4257C286.234 64.4257 283.483 63.1378 282.43 60.2281C282.287 59.8942 281.856 59.8226 281.617 60.1088C279.033 63.114 275.11 64.4973 271.497 64.4973C264.392 64.4973 257.479 59.2025 257.479 49.2808C257.479 39.0251 264.943 33.9689 272.167 33.9689C275.158 33.9689 278.507 34.8275 280.66 37.2125C280.947 37.5464 281.497 37.3556 281.497 36.9024V35.1852C281.497 34.9229 281.712 34.7082 281.976 34.7082H287.31C287.573 34.7082 287.789 34.9229 287.789 35.1852V56.0066C287.789 58.0338 288.841 58.654 289.942 58.654C290.516 58.654 291.258 58.4632 291.808 58.1769C292.047 58.0577 292.334 58.1531 292.454 58.4155L293.961 61.9214C294.033 62.0884 294.009 62.3031 293.865 62.4462C292.525 63.8295 290.659 64.4257 288.841 64.4257ZM281.377 49.1138C281.377 42.7696 276.928 39.6929 272.55 39.6929C268.22 39.6929 263.914 42.6981 263.914 49.1615C263.914 55.5773 268.1 58.654 272.478 58.654C276.856 58.654 281.377 55.5057 281.377 49.1138Z" fill="#FF7A49"/>
</svg>
