<svg xmlns="http://www.w3.org/2000/svg" width="197" height="46" viewBox="0 0 197 46" fill="none"><path d="M7.251 22.444L13.22 21.537C14.605 21.346 15.035 20.63 15.035 19.818C15.035 18.099 13.698 16.666 10.928 16.666C10.3625 16.6157 9.79273 16.679 9.25206 16.8521C8.71139 17.0252 8.21077 17.3046 7.77962 17.6739C7.34846 18.0432 6.99546 18.4949 6.74137 19.0026C6.48728 19.5102 6.33722 20.0635 6.3 20.63L0.478 19.34C0.86 15.52 4.344 11.32 10.933 11.32C18.667 11.32 21.533 15.664 21.533 20.582V32.565C21.539 33.8594 21.6349 35.1519 21.82 36.433H15.805C15.6392 35.4716 15.5583 34.4976 15.563 33.522C14.7785 34.6877 13.7079 35.6326 12.4538 36.2662C11.1996 36.8999 9.80384 37.2011 8.4 37.141C3.149 37.141 0 33.569 0 29.796C0 25.405 3.2 23.065 7.251 22.444ZM15.08 26.598V25.498L9.6 26.36C7.881 26.599 6.594 27.506 6.594 29.416C6.59729 29.814 6.68374 30.207 6.84782 30.5696C7.01189 30.9323 7.24995 31.2566 7.54674 31.5219C7.84353 31.7871 8.19248 31.9874 8.57122 32.1099C8.94995 32.2323 9.3501 32.2743 9.746 32.233C12.512 32.233 15.09 30.896 15.09 26.598H15.08Z" fill="#2347BD"></path><path d="M28.1729 45.842V12.088H34.5729V15.052C35.4162 13.8703 36.5485 12.9247 37.8616 12.3054C39.1747 11.6862 40.6246 11.414 42.0729 11.515C49.1879 11.515 53.2929 16.959 53.2929 24.167C53.2929 31.519 48.7579 37.01 41.7868 37.01C40.4682 37.0886 39.1492 36.8623 37.9322 36.3488C36.7151 35.8353 35.6327 35.0484 34.7689 34.049V45.842H28.1729ZM40.7299 17.434C37.3399 17.434 34.6179 19.965 34.6179 24.261C34.6179 28.557 37.3419 31.146 40.7299 31.146C44.0729 31.146 46.7429 28.615 46.7429 24.272C46.7939 19.918 44.1199 17.437 40.7299 17.437V17.434Z" fill="#2347BD"></path><path d="M58.4854 45.842V12.088H64.8853V15.052C65.7287 13.8703 66.861 12.9247 68.1741 12.3054C69.4872 11.6862 70.9371 11.414 72.3853 11.515C79.4983 11.515 83.6053 16.959 83.6053 24.167C83.6053 31.519 79.0704 37.01 72.0993 37.01C70.7807 37.0886 69.4617 36.8623 68.2447 36.3488C67.0276 35.8353 65.9452 35.0484 65.0813 34.049V45.842H58.4854ZM71.0424 17.434C67.6524 17.434 64.9304 19.965 64.9304 24.261C64.9304 28.557 67.6534 31.146 71.0424 31.146C74.3854 31.146 77.0554 28.615 77.0554 24.272C77.0554 19.929 74.3854 17.437 71.0424 17.437V17.434Z" fill="#2347BD"></path><path d="M92.3301 28.414C92.3679 28.9534 92.514 29.4797 92.7596 29.9615C93.0051 30.4432 93.3451 30.8707 93.7593 31.2183C94.1735 31.5658 94.6535 31.8265 95.1706 31.9847C95.6877 32.1429 96.2313 32.1954 96.7691 32.139C98.9691 32.139 99.9691 31.039 99.9691 29.704C99.9691 28.558 99.2621 27.746 97.3431 27.316L94.1431 26.552C89.3681 25.501 87.3151 22.686 87.3151 19.301C87.3151 14.957 91.1831 11.328 96.4351 11.328C103.309 11.328 105.745 15.721 105.985 18.346L100.498 19.583C100.384 18.626 99.9012 17.7512 99.1521 17.1448C98.403 16.5384 97.4469 16.2482 96.4871 16.336C95.7537 16.2512 95.0166 16.4595 94.436 16.9155C93.8554 17.3716 93.4785 18.0384 93.3871 18.771C93.3871 19.965 94.2941 20.681 95.6311 20.971L99.1171 21.735C103.94 22.735 106.326 25.651 106.326 29.235C106.326 33.198 103.27 37.255 96.8731 37.255C89.5671 37.255 86.9901 32.48 86.7041 29.712L92.3301 28.414Z" fill="#2347BD"></path><path d="M116.25 24.258C116.166 25.1293 116.265 26.0086 116.541 26.8392C116.818 27.6698 117.265 28.4334 117.854 29.0809C118.443 29.7283 119.161 30.2453 119.962 30.5985C120.763 30.9518 121.629 31.1335 122.505 31.132C123.762 31.1767 124.998 30.7955 126.012 30.0501C127.026 29.3047 127.759 28.2388 128.092 27.025L133.87 28.935C133.173 31.3812 131.674 33.5218 129.612 35.0114C127.551 36.5011 125.048 37.253 122.507 37.146C120.803 37.1754 119.112 36.86 117.534 36.2189C115.956 35.5778 114.524 34.6242 113.324 33.4155C112.124 32.2067 111.18 30.7677 110.551 29.1851C109.921 27.6024 109.618 25.9088 109.66 24.206C109.591 22.5172 109.868 20.8323 110.473 19.254C111.077 17.6757 111.997 16.2372 113.176 15.0263C114.356 13.8154 115.769 12.8576 117.331 12.2112C118.893 11.5649 120.57 11.2436 122.26 11.267C124.818 11.1049 127.353 11.8346 129.434 13.3317C131.514 14.8289 133.011 17.0009 133.671 19.478L127.799 21.436C127.517 20.2314 126.824 19.1626 125.84 18.4132C124.855 17.6637 123.641 17.2804 122.405 17.329C121.535 17.3485 120.679 17.5472 119.89 17.9125C119.1 18.2778 118.395 18.8019 117.817 19.4522C117.239 20.1025 116.802 20.8648 116.532 21.6917C116.263 22.5186 116.166 23.3922 116.25 24.258Z" fill="#2347BD"></path><path d="M153.544 18.619C152.901 18.4846 152.244 18.4205 151.586 18.428C148.243 18.428 145.286 20.052 145.286 25.302V36.427H138.688V12.079H145.088V15.708C145.753 14.4731 146.759 13.456 147.987 12.7785C149.215 12.101 150.612 11.7918 152.01 11.888C152.54 11.888 153.01 11.936 153.538 11.988L153.544 18.619Z" fill="#2347BD"></path><path d="M161.485 0.001C162.025 -0.0101461 162.562 0.0888332 163.063 0.291904C163.564 0.494975 164.018 0.797883 164.397 1.18216C164.777 1.56644 165.075 2.02404 165.272 2.52706C165.469 3.03009 165.562 3.568 165.544 4.108C165.548 4.63962 165.444 5.16652 165.241 5.65769C165.038 6.14885 164.738 6.59434 164.36 6.96792C163.981 7.3415 163.532 7.63562 163.039 7.83297C162.545 8.03031 162.017 8.12688 161.485 8.117C160.409 8.117 159.377 7.68941 158.615 6.92829C157.854 6.16718 157.427 5.13488 157.427 4.0585C157.427 2.98212 157.854 1.94982 158.615 1.18871C159.377 0.427591 160.409 0 161.485 0V0.001ZM158.231 36.433V12.08H164.821V36.433H158.231Z" fill="#2347BD"></path><path d="M171.83 45.842V12.088H178.23V15.052C179.073 13.8703 180.206 12.9247 181.519 12.3054C182.832 11.6862 184.282 11.414 185.73 11.515C192.845 11.515 196.95 16.959 196.95 24.167C196.95 31.519 192.415 37.01 185.444 37.01C184.125 37.0886 182.806 36.8623 181.589 36.3488C180.372 35.8353 179.29 35.0484 178.426 34.049V45.842H171.83ZM184.387 17.436C180.997 17.436 178.275 19.967 178.275 24.263C178.275 28.559 180.997 31.146 184.387 31.146C187.729 31.146 190.4 28.615 190.4 24.272C190.451 19.917 187.777 17.436 184.387 17.436Z" fill="#2347BD"></path></svg>